<svg class="object-cover object-center w-full h-40 max-w-full"
     width="1080"
     height="1080"
     version="1.1"
     viewBox="0 0 1080 1080"
     xml:space="preserve"
     sodipodi:docname="cynthia_tbg.svg"
     inkscape:version="1.3.2 (091e20e, 2023-11-25, custom)"
     xmlns:inkscape="http://www.inkscape.org/namespaces/inkscape"
     xmlns:sodipodi="http://sodipodi.sourceforge.net/DTD/sodipodi-0.dtd"
     xmlns:xlink="http://www.w3.org/1999/xlink"
     xmlns="http://www.w3.org/2000/svg"
     xmlns:svg="http://www.w3.org/2000/svg"><sodipodi:namedview
        id="namedview1"
        pagecolor="#ffffff"
        bordercolor="#000000"
        borderopacity="0.25"
        inkscape:showpageshadow="2"
        inkscape:pageopacity="0.0"
        inkscape:pagecheckerboard="0"
        inkscape:deskcolor="#d1d1d1"
        inkscape:zoom="0.58336309"
        inkscape:cx="241.70195"
        inkscape:cy="587.1129"
        inkscape:window-width="1920"
        inkscape:window-height="1129"
        inkscape:window-x="-8"
        inkscape:window-y="-8"
        inkscape:window-maximized="1"
        inkscape:current-layer="layer3" />
    <defs
        id="defs1"><rect
            x="89.138309"
            y="80.567318"
            width="923.95286"
            height="930.80965"
            id="rect2" />
        <linearGradient
            id="linearGradient48"><stop
                style="stop-color:#6ffbad;stop-opacity:1"
                id="stop47"
                offset="0" />
            <stop
                style="stop-color:#fb6f77;stop-opacity:0"
                id="stop48"
                offset="1"/></linearGradient>
        <linearGradient
            id="linearGradient38"><stop
                style="stop-color:#fb6f77;stop-opacity:1"
                id="stop38"
                offset="0" />
            <stop
                style="stop-color:#fb6f77;stop-opacity:0"
                id="stop39"
                offset="1"/></linearGradient>
        <linearGradient
            id="swatch30"><stop
            style="stop-color:#c8b7b8;stop-opacity:1"
            id="stop30"
            offset="0" /></linearGradient>
        <linearGradient
            id="linearGradient39"
            x1="17.285"
            x2="77.68"
            y1="96.582"
            y2="96.582"
            gradientTransform="matrix(6.2700405,0,0,5.2925754,-84.103031,83.719281)"
            gradientUnits="userSpaceOnUse"
            xlink:href="#linearGradient38"/>
        <linearGradient
            id="linearGradient40"
            x1="45.642"
            x2="71.089"
            y1="111.538"
            y2="111.538"
            gradientTransform="matrix(6.2700405,0,0,5.2925754,-84.103031,83.719281)"
            gradientUnits="userSpaceOnUse"
            xlink:href="#linearGradient38"/>
        <linearGradient
            id="linearGradient41"
            x1="52.222"
            x2="79.58"
            y1="136.021"
            y2="136.021"
            gradientTransform="matrix(6.2700405,0,0,5.2925754,-84.103031,83.719281)"
            gradientUnits="userSpaceOnUse"
            xlink:href="#linearGradient38"/>
        <linearGradient
            id="linearGradient42"
            x1="80.134"
            x2="101.8"
            y1="116.403"
            y2="116.403"
            gradientTransform="matrix(6.2700405,0,0,5.2925754,-84.103031,83.719281)"
            gradientUnits="userSpaceOnUse"
            xlink:href="#linearGradient38"/>
        <linearGradient
            id="linearGradient43"
            x1="96.83"
            x2="122.375"
            y1="107.292"
            y2="107.292"
            gradientTransform="matrix(6.2700405,0,0,5.2925754,-84.103031,83.719281)"
            gradientUnits="userSpaceOnUse"
            xlink:href="#linearGradient38"/>
        <linearGradient
            id="linearGradient44"
            x1="127.509"
            x2="138.383"
            y1="112.475"
            y2="112.475"
            gradientTransform="matrix(6.2700405,0,0,5.2925754,-84.103031,83.719281)"
            gradientUnits="userSpaceOnUse"
            xlink:href="#linearGradient38"/>
        <linearGradient
            id="linearGradient45"
            x1="123.294"
            x2="131.392"
            y1="97.289"
            y2="97.289"
            gradientTransform="matrix(6.2700405,0,0,5.2925754,-84.103031,83.719281)"
            gradientUnits="userSpaceOnUse"
            xlink:href="#linearGradient38"/>
        <linearGradient
            id="linearGradient46"
            x1="167.794"
            x2="173.726"
            y1="114.658"
            y2="114.658"
            gradientTransform="matrix(6.2700405,0,0,5.2925754,-84.103031,83.719281)"
            gradientUnits="userSpaceOnUse"
            xlink:href="#linearGradient38"/>
        <linearGradient
            id="linearGradient47"
            x1="134.783"
            x2="164.694"
            y1="104.817"
            y2="104.817"
            gradientTransform="matrix(6.2700405,0,0,5.2925754,-84.103031,83.719281)"
            gradientUnits="userSpaceOnUse"
            xlink:href="#linearGradient48"/></defs>
    <rect
        style="opacity:0.854;mix-blend-mode:normal;fill:#c6c6c6;fill-opacity:0.669154;stroke-width:1.275"
        id="rect1"
        width="1093.6584"
        height="1093.6584"
        x="-8.5709915"
        y="-5.1425948"/>
    <g
        id="layer1"
        style="opacity:0.216"><path
            style="fill:#77a0f3;fill-opacity:0.173602;fill-rule:nonzero;stroke:#000;stroke-width:3.98059;stroke-linejoin:bevel"
            id="path48"
            d="m 977.7782,-32.809572 c -33.25992,6.49129 -66.18222,15.141695 -99.56566,21.574164 -4.7476,0.914771 -9.73397,0.761462 -14.46159,1.7471085 -3.42165,0.713379 -6.39744,2.594887 -9.8172,3.314739 -4.6675,0.982481 -9.59324,0.844071 -14.28036,1.757658 -10.10343,1.969313 -19.44627,6.20004 -29.51163,8.30369 -7.61848,0.918152 -16.60426,1.770881 -24.23786,3.394651 -12.26229,2.608304 -24.25836,5.4780535 -36.34322,8.5383215 -18.14328,4.594445 -36.82696,5.236469 -54.93242,9.940888 -17.21332,4.472606 -2.32995,2.568787 -21.8314,6.714841 -3.85526,0.819641 -7.90897,0.837346 -11.76479,1.655121 -6.92082,1.467818 -12.94914,5.270789 -19.88029,6.703219 -5.58098,1.1534 -11.41957,1.10565 -17.09835,1.84434 -12.0004,1.56101 -10.53054,2.23333 -24.05826,5.10229 -15.59627,3.30768 -31.60013,4.26053 -47.0592,8.27562 -15.27511,3.96732 -29.94104,8.997087 -45.14341,13.266277 -11.49344,3.22764 -27.10198,4.76415 -37.80883,8.39978 -6.31079,2.14287 -11.61649,6.04293 -17.83247,8.37491 -13.47129,5.05385 -27.64316,8.66312 -41.29841,13.26663 -7.72118,2.602994 -14.33753,6.880884 -21.65378,9.969984 -10.55169,4.4552 -22.78711,9.5693 -33.68952,13.4354 -7.62219,2.70289 -15.99873,3.74103 -23.52962,6.62049 -19.34262,7.39573 -1.29813,2.21689 -17.89793,10.0013 -9.24943,4.33749 -20.29282,6.05261 -29.61989,10.00771 -2.98794,1.26703 -5.337,3.40164 -8.00548,5.10246 -4.00362,1.68972 -7.94382,3.49106 -12.01087,5.06916 -18.61758,7.22396 -37.31283,14.01084 -55.56191,21.71292 -3.14815,1.32869 -6.77405,1.79836 -9.804,3.31026 -5.28128,2.63528 -9.73436,6.33717 -14.962,9.0476 -11.51744,5.97161 -25.57318,8.07156 -36.99551,13.8668 -3.67143,1.86274 -6.47846,4.76209 -10.04151,6.76919 -14.2768,8.04235 -31.15783,13.10534 -45.131618,21.53059 -2.25647,1.3605 -3.45832,3.82871 -5.8824,4.96537 -3.61482,1.69502 -8.15409,1.6161 -11.768757,3.31135 -6.347547,2.97698 -11.631539,9.61589 -17.648521,13.2432 -34.212407,20.6249 10.348294,-7.47692 -17.695116,8.29986 -0.638321,0.35911 -19.049186,12.90991 -19.70053,13.30881 -9.218834,5.64582 -19.39949879,10.48588 -28.0185988,16.85186 -2.7825092,2.05515 -4.8853412,4.74794 -7.8431962,6.62049 -6.268427,3.96842 -13.898763,6.76666 -19.608011,11.58587 -2.310818,1.95058 -3.571571,4.6699 -5.882401,6.62048 -2.31083,1.95059 -5.53238,3.0148 -7.843212,4.96536 -10.03906,10.54545 -4.8202,5.70788 -13.99427,13.42955 -4.58177,3.8564 -8.54937,8.30889 -13.72561,11.58586 -1.1692,0.74019 -3.04471,0.66819 -3.92159,1.65512 -2.73494,3.07809 -2.96234,8.29942 -5.88242,11.58585 -7.37114,8.29598 -15.251629,16.67596 -19.608009,26.48192 -0.94623,2.12991 -0.75575,4.58583 -1.96079,6.62049 -0.0389,0.0659 -11.72871,13.18545 -11.77091,13.24956 -9.08826,13.80617 -16.21762,28.58815 -23.59841,43.12521 -1.15144,2.26782 -2.30023,4.56757 -3.92161,6.62049 -1.02545,1.29839 -3.27249,1.84914 -3.9216,3.31025 -1.39597,3.14223 -0.91472,6.69308 -1.96081,9.93075 -2.99866,9.28091 -9.21777,18.04634 -13.86814,26.72299 -6.07002,11.32544 -11.58778,23.03202 -17.38427,34.4346 -7.5747,14.90063 -8.86962,31.51085 -13.86084,46.97301 -0.92532,2.86651 -3.06997,5.39285 -3.9216,8.27556 -4.89746,16.57789 -6.97148,34.29356 -8.1029,51.20112 1.63004,9.5786 -3.25861,18.46038 -4.17305,27.75395 -0.72186,7.33635 0.77946,14.75268 0,22.0848 -0.29789,2.80194 -1.65907,5.47399 -1.9608,8.27563 -1.16549,10.82183 0,22.07675 0,32.9521 0,20.75362 -1.27235,41.70984 3.9216,62.14743 0.0363,0.14288 8.00933,20.32011 8.01722,20.34011 5.43216,13.75588 10.55639,27.94051 18.26259,40.94017 4.99862,8.43215 10.8056,16.61231 15.81715,25.0857 5.63576,9.52893 10.67007,19.86013 17.92109,28.60663 1.59438,1.92319 4.11854,3.17635 5.8991,4.97941 5.96037,6.03572 10.27199,13.46301 15.6864,19.8614 5.0881,6.01301 11.05479,11.95031 15.69204,18.21281 1.54927,2.0923 2.22264,4.6128 3.92159,6.6205 1.61177,1.9046 4.07776,3.18809 5.8824,4.96529 6.35679,6.2601 11.425609,13.5595 17.647209,19.8615 3.55045,3.5962 8.68844,6.0356 11.7648,9.9307 1.1465,1.4517 0.75946,3.5457 1.9608,4.9654 6.53601,7.72375 6.53601,4.41365 11.7648,9.93075 3.14595,3.3193 4.69727,6.6112 7.84322,9.9306 5.07678,5.3567 13.147549,9.1989 17.647196,14.8961 0.810689,1.0265 0.927371,2.4381 1.960808,3.3104 1.461488,1.2336 4.162661,0.6872 5.882389,1.655 3.29533,1.8543 6.320078,5.1501 9.804017,6.6205 6.476899,2.7337 12.9471162,5.4642 19.60799821,8.2756 12.43682779,5.249 25.05975479,10.8479 38.63922579,13.738 3.855496,0.8206 7.946491,0.7234 11.766165,1.6556 5.949362,1.4521 11.365265,4.3443 17.413897,5.4669 3.92132,0.7276 8.043455,-0.2783 12.044847,0 8.1122,0.5639 15.98611,2.7038 24.082938,3.4077 9.66845,0.8405 19.92444,0 29.64856,0 15.39928,0 31.89731,1.1911 47.25052,0 3.35302,-0.2599 6.54694,-1.4331 9.89969,-1.6955 7.80971,-0.6113 15.71066,0.5202 23.52961,0 13.96273,-0.9293 27.32112,-4.3633 41.32472,-5.2538 22.41007,-1.4252 1.49828,2.2094 26.5887,-1.751 6.01166,-0.9489 11.84638,-2.6869 17.9092,-3.3653 4.01927,-0.4499 8.12216,0.2768 12.16332,0 33.71594,-2.3101 -7.54448,-0.8469 22.12292,-3.3102 3.2523,-0.27 6.56123,0.3418 9.80401,0 7.61439,-0.8034 14.56538,-4.4797 21.56879,-6.6205 18.10157,-5.5333 36.30395,-8.3053 53.84387,-15.1599 9.28672,-3.6291 19.09791,-6.2785 28.25976,-10.1273 25.84263,-10.8559 -4.42006,0.7043 17.79177,-10.0039 7.43713,-3.5855 4.93906,0.7963 11.76481,-4.9653 7.43769,-6.2783 1.0981,-3.2001 5.88239,-9.9309 0.95112,-1.338 2.81242,-2.0618 3.92161,-3.3102 3.61964,-4.07365 5.94402,-10.08665 7.84321,-14.89595 2.27529,-5.7619 3.05214,-12.632 5.8824,-18.2063 0.9283,-1.8285 3.09414,-3.1029 3.92159,-4.9654 1.1702,-2.6342 0.9069,-5.60679 1.96081,-8.27569 0.92434,-2.3407 3.11859,-4.248 3.9216,-6.6205 0.53866,-1.5914 -0.27732,-3.3268 0,-4.9653 0.9965,-5.888 3.1094,-14.39995 5.8824,-19.86149 0.92831,-1.82848 3.27419,-3.0527 3.9216,-4.96532 0.61002,-1.80221 -0.45753,-9.26871 0,-11.58589 1.44524,-7.31962 6.87639,-26.51251 9.804,-33.10245 10.31222,-23.21226 -1.42303,11.6522 5.88241,-9.9307 2.3931,-7.07014 3.50009,-14.47837 5.88239,-21.51661 1.49021,-4.40257 5.09281,-8.5755 5.8824,-13.24097 0.36975,-2.18466 -0.71822,-4.49856 0,-6.62053 0.64742,-1.91263 2.99329,-3.13696 3.92161,-4.96534 4.08825,-8.05212 5.9768,-19.94114 13.72561,-26.48197 1.66635,-1.40656 4.66995,-1.60449 5.8824,-3.31024 1.00882,-1.41927 -1.1765,-3.64124 0,-4.96534 1.24012,-1.39575 4.22891,-0.60832 5.8824,-1.65515 1.1692,-0.74016 0.79161,-2.57002 1.96081,-3.31023 1.65348,-1.04678 4.2289,-0.60834 5.88238,-1.65515 1.16919,-0.74019 0.92739,-2.43792 1.96081,-3.31024 3.56262,-3.0072 11.50963,-3.79013 15.68642,-4.96533 24.35158,-6.85178 46.45377,-5.30862 72.78289,-3.31026 21.3392,1.61959 43.24405,1.90788 64.44212,5.26278 11.11236,1.75867 21.63734,5.68402 32.74486,7.4645 5.64324,0.9046 11.44268,0.97483 17.09248,1.85027 45.75221,7.08979 0.96486,1.31379 39.21835,7.83238 14.45259,2.46275 29.83888,4.04475 44.47215,5.39489 19.79268,1.82615 39.17659,0.44034 58.83016,1.86282 4.11683,0.29796 8.10994,1.4119 12.22389,1.73613 12.80803,1.0095 26.32872,0 39.21593,0 4.6654,0 11.1423,0.96198 15.6865,0 5.54664,-1.17422 13.18024,-5.29263 17.59744,-8.27558 2.1654,-1.46223 3.4749,-3.80409 5.8825,-4.96539 4.8486,-2.33869 10.8378,-2.62665 15.6863,-4.96538 7.3687,-3.55423 14.1988,-8.03377 21.5689,-11.58581 9.3244,-4.49404 7.9962,-2.44079 17.7356,-8.31301 1.5043,-0.90703 2.2052,-2.7307 3.9217,-3.31024 1.8206,-0.61474 4.1287,0.74017 5.8825,0 1.3071,-0.55176 0.7074,-2.67556 1.9607,-3.31025 2.3109,-1.17034 5.5325,-0.4848 7.8433,-1.65514 1.2531,-0.63468 0.9273,-2.43792 1.9607,-3.31024 3.1183,-2.6321 11.7735,-5.79838 15.6864,-8.27563 14.104,-8.92895 -4.1379,1.83785 5.8824,-6.62049 1.6663,-1.40654 4.216,-1.90362 5.8824,-3.31022 0.4623,-0.39007 -0.2921,-1.16167 0,-1.65511 1.0539,-1.7792 2.6144,-3.31028 3.9218,-4.96539 2.3211,-2.93932 5.6898,-5.24635 7.843,-8.27563 3.8512,-5.41821 4.5109,-12.58071 7.8432,-18.20635 14.9258,-25.19767 27.9731,-54.05952 31.3729,-82.75608 0.9721,-8.20508 0.8822,-16.63037 1.9615,-24.82937 0.9548,-7.25475 2.857,-14.32776 3.9216,-21.51659 1.263,-8.52952 0,-17.88606 0,-26.48197 0,-13.57071 2.5127,-31.96273 0,-44.6883 -0.9845,-4.98576 -3.076,-9.89914 -3.9216,-14.89612 -0.3699,-2.18466 0.4295,-4.44368 0,-6.62048 -0.2401,-1.21688 -1.3072,-2.20684 -1.9608,-3.31025 -0.6535,-2.20683 -1.5797,-4.3686 -1.9608,-6.62049 -2.5004,-14.77411 -8.7223,-27.66304 -15.7189,-41.43291 -1.6294,-3.20679 -2.073,-6.80981 -3.9216,-9.93074 -4.4649,-7.53772 -10.1726,-15.16934 -13.7255,-23.17171 -1.3097,-3.3185 -2.6193,-6.63698 -3.9289,-9.95549 0,-1.65512 0.5385,-3.37393 0,-4.96537 -2.3644,-6.9852 -8.8277,-13.24997 -11.7659,-19.86374 -1.1703,-2.63405 -0.9069,-5.6068 -1.9609,-8.2756 -3.3235,-8.41638 -9.5663,-16.63487 -13.7255,-24.82685 -1.6283,-3.20718 -1.8708,-6.90116 -3.9217,-9.93073 -1.6213,-2.39508 -4.4209,-4.15318 -5.8824,-6.62048 -1.8934,-3.19668 -9.0551,-21.03396 -9.8039,-24.82686 -0.3223,-1.63258 0.3843,-3.34236 0,-4.96535 -0.573,-2.41941 -3.2127,-4.22685 -3.9216,-6.62049 -0.6342,-2.14095 0.6341,-4.47955 0,-6.62049 -0.709,-2.39365 -3.2128,-4.22686 -3.9217,-6.6205 -1.3036,-4.40136 -1.8134,-8.79222 -3.9216,-13.24096 -2.0162,-4.25481 -4.9762,-8.65139 -5.8824,-13.241 -0.4301,-2.17679 0.6341,-4.47955 0,-6.62048 -0.6536,-1.65513 -1.3071,-3.31026 -1.9608,-4.96536 -0.6536,-0.55171 -1.6663,-0.91554 -1.9608,-1.65514 -1.7379,-4.3656 1.7663,-10.24122 0,-14.59764 -2.5752,-6.35154 -4.3174,-30.05547 -1.9609,-36.0231 0.2923,-0.74019 1.6664,-0.91551 1.9609,-1.65513 1.1767,-2.95623 -0.8983,-6.85796 0,-9.89132 2.4065,-8.12511 7.8244,-14.81707 9.804,-23.17173 0.3832,-1.61634 -0.6151,-3.38065 0,-4.94505 1.1743,-2.98583 2.6956,-5.21914 3.868,-8.20556 0.2031,-0.51713 0,-1.08958 0,-1.63436 0,-1.09652 -0.4126,-2.24973 0,-3.28953 0.2934,-0.73989 1.3073,-1.10342 1.9608,-1.65513 0.6535,-1.65512 1.4595,-3.27281 1.9609,-4.96536 0.2882,-0.97291 1.5844,-7.998544 1.8279,-8.217644 0.4143,-0.37275 1.3884,0.36144 1.8162,0 0.3248,-0.27421 2.8676,-5.42977 3.126,-6.20786 1.002,-3.01596 -1.168,-6.88404 0,-9.85149 1.348,-3.42504 1.4512,-10.7309 1.9412,-11.56929 0.2852,-0.48809 1.7311,0.51654 1.9342,0 0.4753,-1.20941 1.2652,-49.095197 0,-52.299094 -0.7781,-1.970467 -3.0468,-4.402885 -3.9216,-6.599376 -0.2256,-0.56643 -3.4567,-6.1829055 -3.9216,-6.5752355 -1.0275,-0.86723 -3.024,-0.672249 -3.893,-1.655118 -3.1437,-3.55568 -3.8426,-9.864182 -7.8431,-13.2409835 -5.6337,-4.755373 -10.9968,-7.123912 -17.6472,-9.930733 -6.7635,-2.854504 -12.4714,-7.922698 -19.608,-9.930728 -6.8114,-1.9165 -14.5131,-2.119094 -21.5688,-3.310246 -13.7378,-2.319223 5.8944,-0.99103 -7.8433,-3.310246 -4.4863,-0.757389 -9.1963,0.546162 -13.72564,0 -11.8395,-1.427679 -9.213,-3.538246 -20.11946,4.510322 z" />
        <path
            style="fill:url(#linearGradient39);fill-opacity:1;fill-rule:nonzero;stroke:#000;stroke-width:3.98059;stroke-linejoin:bevel"
            id="path1"
            d="m 380.24501,264.58472 c -14.14505,3.84345 -28.56501,6.91868 -42.80838,10.50135 -3.72731,1.00693 -7.47477,1.96213 -11.18191,3.02077 -4.27889,1.22193 -8.49814,2.58901 -12.77332,3.82012 -15.8073,4.55196 -31.81717,8.56312 -47.5285,13.35903 -5.94222,1.81389 -11.81917,3.77661 -17.72877,5.66491 -29.46442,9.64332 -59.37061,18.56669 -87.53798,30.77568 -5.3329,2.3115 -10.52295,4.85063 -15.78444,7.27597 -22.59333,10.91629 -44.20441,23.61243 -62.854866,39.02334 -3.136213,2.59144 -6.067487,5.35387 -9.101258,8.03081 -10.994957,10.3006 -19.715168,22.26853 -25.836955,35.14134 -3.793638,7.97725 -4.665457,11.84971 -7.24788,20.15858 -6.377538,22.14115 -7.529679,44.93708 -8.953654,67.5861 -1.69451,29.34561 -3.214344,58.70752 -4.209608,88.07788 -0.453315,21.01669 -0.349793,42.08114 0.689292,63.08827 0.542289,10.96427 1.536041,21.88702 2.441318,32.8319 1.955501,19.45218 3.895318,39.0165 8.575629,58.17144 2.871109,11.75048 4.210586,14.60074 8.275727,26.00375 7.602164,19.31525 18.610417,37.66185 32.36537,54.37867 2.418249,2.93896 5.029844,5.76119 7.544761,8.64177 9.770684,10.39223 20.501524,20.32824 32.927994,28.52332 20.66676,13.6294 78.47313,39.17062 78.74805,39.3041 13.72342,5.25811 28.39386,8.43466 43.29422,10.17221 7.98066,0.93054 15.15431,1.2847 23.18411,1.79963 15.35248,0.9041 30.75557,0.93668 46.09838,1.98434 9.17204,0.62619 10.10982,0.83706 18.88367,1.86281 17.83528,2.8305 9.15392,2.52588 -17.00697,-16.67465 0,0 -1.51003,-0.96758 -1.51003,-0.96758 v 0 c -37.2357,-20.88096 -21.25552,-18.73561 -42.13986,-20.34031 -20.8158,-1.01762 -41.67689,-1.00211 -62.48663,-2.14949 -21.76946,-1.61232 -43.15034,-4.03626 -62.80196,-12.72858 16.54485,8.21465 33.08968,16.42932 49.63452,24.64397 -3.31589,-1.73877 -6.73484,-3.34474 -9.94768,-5.21625 -13.52873,-7.88076 -25.13147,-17.89569 -36.01753,-28.20817 -7.57138,-7.67971 -10.07867,-9.91546 -16.9744,-18.18406 -11.68861,-14.01564 -21.51404,-29.12859 -28.95924,-45.08161 -1.801636,-4.25752 -3.735748,-8.47671 -5.404938,-12.77253 -9.217211,-23.72142 -14.615658,-48.39388 -18.563084,-73.08708 -0.703917,-5.50311 -1.511061,-10.9975 -2.111731,-16.50929 -2.899123,-26.60313 -3.651806,-53.31947 -3.660705,-80.0214 0.06785,-15.26266 0.222158,-30.51667 0.837386,-45.77231 0.613079,-15.20222 0.721465,-14.29332 1.753447,-29.2383 0.303154,-4.39078 0.585304,-8.78257 0.877979,-13.17385 2.001392,-24.29398 0.04899,-1.18543 2.159827,-24.53826 1.286893,-14.23543 2.516962,-28.50848 6.067668,-42.50523 2.377427,-8.5527 2.967538,-11.58131 6.271619,-19.89137 5.071826,-12.75609 12.356532,-24.84101 21.316662,-35.95658 6.99058,-7.92014 8.16815,-9.69488 16.28046,-17.04629 13.95879,-12.64952 30.05639,-23.46709 46.7068,-33.4636 10.39892,-5.94635 17.98873,-10.41948 28.69633,-16.00251 20.22285,-10.54439 41.34071,-19.859 63.05055,-28.01881 28.1267,-10.25266 55.95611,-21.57806 85.93894,-27.49803 16.28856,-3.28644 33.06957,-7.01296 49.95137,-5.76471 z"/>
        <path
            style="fill:url(#linearGradient40);fill-opacity:1;fill-rule:nonzero;stroke:#000;stroke-width:3.98059;stroke-linejoin:bevel"
            id="path2"
            d="m 216.38822,631.96687 c 3.12607,-0.40807 6.15609,-0.12437 9.00237,1.12647 1.21808,0.53535 4.65705,2.44507 3.42533,1.93243 -19.67933,-8.19101 -24.2733,-13.39703 -16.44209,-5.72085 10.6727,11.51521 21.52238,22.91288 32.44843,34.25715 9.97695,10.28914 20.81273,20.04764 33.14251,28.36254 2.15968,1.45646 4.41237,2.81184 6.61855,4.2177 19.56037,11.10568 10.28939,6.01815 50.74372,25.22087 4.56101,2.16503 10.26941,4.04167 15.49562,4.68059 1.20708,0.14766 2.43671,0.0953 3.65507,0.14344 10.57348,-2.0078 3.73837,-0.0159 -15.04897,-13.18731 0,0 -1.57475,-0.89105 -1.57475,-0.89105 v 0 c -22.64023,-11.55513 -13.4764,-11.45494 -24.06706,-11.22005 -3.26175,-0.2588 -6.20257,-0.84888 -9.26774,-1.88924 -1.58222,-0.53704 -6.12036,-2.52276 -4.66576,-1.77138 8.11937,4.1939 48.99097,24.34422 24.63095,12.19733 -2.64087,-1.48371 -5.32935,-2.9088 -7.92262,-4.45127 -14.5835,-8.67405 -27.83129,-18.92412 -39.8789,-30.00439 -12.38804,-11.97657 -24.016,-24.51018 -37.01107,-36.03472 -10.87672,-9.18612 -4.88958,-4.7062 -29.96357,-16.7185 -2.64165,-1.26555 -4.69255,1.48113 -5.80672,2.95717 z"/>
        <path
            style="fill:url(#linearGradient41);fill-opacity:1;fill-rule:nonzero;stroke:#000;stroke-width:3.98059;stroke-linejoin:bevel"
            id="path3"
            d="m 369.25213,603.77308 c -2.62507,6.32491 -5.70498,12.50606 -8.55943,18.75862 -1.03684,2.2712 -2.22307,4.4979 -3.10621,6.81492 -0.98089,2.57346 -1.65195,5.22384 -2.47791,7.83577 -5.39351,19.14378 -9.8143,38.47035 -13.95203,57.83255 -3.86885,18.90852 -5.31252,38.1946 -3.72094,57.35252 0.32567,3.92 0.91774,7.82095 1.37661,11.73141 2.72349,21.12892 8.08331,41.90608 13.1637,62.6931 2.8814,12.60104 5.58025,25.32783 5.87729,38.19745 0.1678,7.27005 -0.24973,8.87434 -1.05654,15.94961 -1.46694,9.09287 -5.08635,17.73669 -10.36334,25.7389 -2.92981,4.44286 -5.11124,6.94513 -8.5103,11.16728 -9.5819,11.35237 -20.54918,21.78927 -32.18756,31.65319 -8.32939,6.48527 -17.04261,13.23605 -27.91218,16.5193 -1.59899,0.48317 -3.27084,0.77283 -4.90626,1.1592 -3.99408,0.51602 -8.14581,1.02147 -12.19928,0.60826 -10.77261,-1.09819 -37.98909,-23.00479 24.56852,16.58671 0,0 1.49803,0.98073 1.49803,0.98073 v 0 c 9.83215,5.92264 19.35711,12.22669 29.49647,17.768 0.67453,0.3689 1.58443,-0.2276 2.37487,-0.3498 4.10788,-0.6349 8.19679,-1.3687 12.07583,-2.7233 4.7586,-1.85148 5.70951,-2.037 10.1902,-4.57026 8.18256,-4.62607 15.06554,-10.62333 21.8811,-16.56234 3.44752,-3.0823 8.3619,-7.4151 11.65624,-10.6062 7.31546,-7.08604 13.91572,-14.68314 20.32591,-22.35813 1.52862,-1.99697 3.14722,-3.94684 4.58586,-5.9909 7.46347,-10.60436 12.3188,-22.36727 13.10955,-34.73407 0.0695,-2.79173 0.2681,-5.58324 0.20831,-8.37508 -0.35591,-16.6234 -4.57417,-32.94251 -9.08116,-49.05084 -6.22096,-21.69173 -13.60087,-43.12962 -19.43583,-64.90069 -1.8563,-7.93504 -4.02184,-16.57755 -5.31383,-24.59449 -2.53315,-15.71825 -2.82879,-31.6778 -2.00339,-47.50154 1.26639,-20.53318 3.32103,-41.0209 5.20838,-61.51873 0.31707,-2.81247 0.69393,-5.62055 0.95112,-8.43737 0.2394,-2.62142 0.25414,-5.25621 0.53835,-7.87446 0.73396,-6.76125 2.1661,-13.62235 5.34688,-19.88743 z"/>
        <path
            style="fill:url(#linearGradient42);fill-opacity:1;fill-rule:nonzero;stroke:#000;stroke-width:3.98059;stroke-linejoin:bevel"
            id="path4"
            d="m 420.47615,662.94341 c 0.66759,3.25478 0.49011,6.82849 1.15945,10.03992 0.42985,2.06258 1.22154,4.05956 1.81467,6.09308 1.91763,6.57437 2.1249,7.45907 3.97567,14.24988 2.89362,9.25248 6.01444,18.5056 7.87086,27.96174 0.642,3.27027 0.85345,5.82411 1.20204,9.07337 -0.0841,2.15282 0.66087,6.33738 -1.4821,8.13411 -0.16741,0.14025 -0.49928,0.28526 -0.68212,0.15931 -0.28567,-0.19689 -0.24377,-0.58742 -0.36566,-0.88112 -0.51196,-14.52689 -0.60081,-1.26253 39.61872,17.47075 0.63644,0.29638 -1.10151,-0.82337 -1.4983,-1.33742 -2.32395,-3.01102 -3.15882,-6.98917 -4.21743,-10.37414 -3.62054,-13.13365 -3.16402,-26.56572 -1.81289,-39.89083 2.16817,-12.49689 5.29367,-25.58564 14.25363,-36.04609 1.31543,-1.53571 2.94406,-2.8617 4.41607,-4.2926 4.04233,-2.81612 8.21051,-5.00963 13.61839,-3.63473 1.50768,0.38319 5.61088,2.41204 4.239,1.75962 -39.20983,-18.64621 -46.59327,-24.58809 -31.5183,-13.47585 9.07227,8.46499 13.14189,19.19263 16.54001,29.987 2.7563,10.47919 4.69854,21.09609 6.32827,31.73723 0.51779,4.49027 1.20181,8.95604 2.64492,13.30575 5.34756,15.245 31.1822,30.86772 48.43985,23.72224 1.5551,-0.64391 2.08886,-1.09685 3.44901,-1.99817 7.89419,-6.07387 2.51079,-1.24302 -15.06252,-12.7251 -0.86518,-0.56531 -1.3009,-1.48516 -1.95136,-2.22775 0,0 -1.62131,-0.8294 -1.62131,-0.8294 v 0 c -1.21306,-0.21859 -2.52301,-0.19847 -3.63919,-0.65517 -26.30528,-10.7606 -13.36302,-12.41633 -21.73984,-7.50677 -0.65693,0.18946 -1.05371,0.46838 -1.7151,0.10532 -0.24433,-0.13443 -0.81926,-0.68492 -0.56631,-0.56262 14.54998,7.03364 29.09323,14.07974 43.50165,21.31809 0.3806,0.19106 -0.90239,-0.002 -1.31959,-0.12702 -0.432,-0.12916 -0.77598,-0.41124 -1.16397,-0.61696 -3.30579,-3.95214 -4.49621,-8.82294 -5.97302,-13.41505 -3.00876,-10.79119 -5.53282,-21.66632 -7.85561,-32.57706 -0.46354,-1.9157 -0.84084,-3.84776 -1.39066,-5.74715 -2.69704,-9.31722 -7.58637,-18.09686 -13.93285,-26.02688 -14.03727,-15.51498 -4.69249,-6.30409 -49.05773,-26.19608 -2.73385,-1.22575 -7.94856,-0.6278 -10.59878,0.26781 -4.30571,1.45514 -6.01624,3.55646 -9.18738,6.29879 -1.34392,1.71342 -2.83436,3.35111 -4.03174,5.14026 -7.74706,11.57609 -11.19556,24.86389 -14.00895,37.79506 -0.46743,2.60168 -1.06403,5.18912 -1.40237,7.80497 -1.38965,10.74409 -0.32724,21.61959 0.76927,32.33928 0.50128,3.71597 1.08213,7.27993 2.2256,10.89535 0.25073,0.79283 0.007,1.91506 0.82264,2.36175 40.79945,22.34965 28.18764,28.23368 43.93531,20.03173 0.43451,-0.51393 0.97945,-0.97315 1.30363,-1.54233 2.19655,-3.85674 -1.6224,-9.69668 -2.57347,-13.41302 -5.62209,-13.92334 -12.42661,-27.48402 -18.66041,-41.21535 -0.56581,-1.09921 -7.42949,-14.43783 -8.22161,-15.96055 -1.18271,-2.27364 -2.24447,-4.5964 -3.57754,-6.80997 -2.80958,-4.66534 -6.29039,-9.11772 -9.67953,-13.4934 z"/>
        <path
            style="fill:url(#linearGradient47);fill-opacity:1;fill-rule:nonzero;stroke:#000;stroke-width:3.98059;stroke-linejoin:bevel"
            id="path8"
            d="m 860.44498,649.7703 c 0.88828,3.20933 1.9846,6.41911 3.44378,9.48095 1.03145,2.16425 2.61913,4.19968 3.48301,6.41435 5.61067,2.03346 10.87268,4.97767 16.8321,6.10039 1.64365,0.30961 2.69686,-3.73323 2.51214,-6.39716 -0.21694,-3.12334 -1.76451,-7.55143 -3.51487,-10.21947 -1.32692,-2.02245 -3.17339,-3.76884 -4.76009,-5.65327 -16.57223,-13.6641 -38.67118,-23.72935 -62.00284,-25.05901 -11.77462,-0.671 -13.45138,0.15771 -24.80742,1.83774 -10.20015,2.76505 -19.99792,6.5612 -25.13323,15.08204 -2.76885,4.5941 -3.81747,11.26884 -3.12427,16.34041 0.37495,2.74329 1.65427,5.34354 2.48137,8.01527 1.54747,2.30301 2.78575,4.77503 4.6424,6.90904 11.4703,13.1844 52.50505,28.01239 55.09107,29.10954 3.78102,1.60406 12.98978,0.19688 16.48737,-1.06208 2.89978,-1.04395 5.34658,-2.82083 8.01986,-4.23129 6.4752,-5.02736 9.26564,-6.66601 14.41885,-12.85816 6.73585,-8.09389 11.65836,-17.58119 15.50678,-26.8766 1.26035,-3.04423 2.25362,-6.16256 3.38036,-9.24384 4.45757,-13.01541 6.48805,-26.4541 8.96626,-39.79794 0.0701,-0.3103 0.75718,-3.87514 1.22859,-4.61719 0.0998,-0.1573 0.79766,-0.0749 0.60753,-0.1536 -16.6372,-6.89966 -33.04215,-14.24784 -50.10036,-20.37164 -1.04691,-0.37581 0.7049,1.82666 1.01579,2.75044 0.57999,1.72368 1.10448,3.46035 1.6567,5.19053 5.10506,17.1945 8.35692,34.72516 11.71757,52.20707 2.43915,9.60141 2.20161,20.20763 8.24075,28.88576 45.84128,22.40739 45.00771,36.07822 66.19636,10.59156 3.81455,-5.06954 7.72219,-10.09426 11.85247,-14.9855 0.23501,-0.67348 1.21352,-1.04375 1.48218,-1.71364 0.0875,-0.21858 0.20445,-0.56688 -0.025,-0.6922 -7.57344,-4.13367 -15.38666,-7.9457 -23.07999,-11.91851 0,0 -1.63277,-0.81333 -1.63277,-0.81333 v 0 c -7.89215,-3.73729 -15.65377,-7.67819 -23.67643,-11.2119 -0.29594,-0.13019 -0.65091,0.19319 -0.88557,0.39325 -0.32852,0.28051 -1.12223,1.84404 -1.24523,2.07104 -2.8213,5.31876 -5.57665,10.70847 -9.70644,15.42611 -2.52499,2.77348 -5.07025,5.87819 -8.7872,7.63878 -0.79228,0.37525 -1.66949,0.69469 -2.57531,0.75266 -0.66711,0.0424 -1.2867,-0.30962 -1.92997,-0.46418 15.2724,7.64064 30.54478,15.28122 45.81711,22.92184 -0.92383,-0.42658 -1.97279,-0.70015 -2.77167,-1.27922 -2.33506,-1.69261 -3.98222,-4.4283 -5.15294,-6.71649 -3.33491,-6.5179 -5.03112,-13.54274 -7.07373,-20.38992 -4.21455,-16.80258 -7.56754,-33.79139 -9.0675,-50.93392 -0.0189,-1.48892 -0.0756,-2.97795 -0.0503,-4.46675 0.0126,-0.80203 0.99634,-1.99836 0.17491,-2.40184 -69.4112,-34.10012 -51.79619,-36.12221 -48.85117,-15.93096 1.19574,13.75496 0.12795,27.58282 -3.5352,41.04876 -0.98969,3.02095 -1.81202,6.08451 -2.96906,9.06278 -4.51976,11.63405 -11.44079,23.2042 -22.33784,31.54047 -2.3418,1.79149 -5.05512,3.20308 -7.58283,4.80466 -6.31494,2.23638 -8.24311,3.70947 -15.1287,3.28882 -2.42872,-0.1482 -9.1007,-2.59851 -7.11043,-1.41424 10.99927,6.54486 22.99576,11.8053 34.49369,17.70795 -2.34711,-1.52563 -4.94877,-2.80686 -7.04133,-4.57692 -2.17391,-1.83894 -3.76906,-4.10788 -5.65359,-6.16181 -1.24055,-2.41108 -2.91858,-4.69352 -3.72191,-7.23321 -2.10814,-6.66547 -0.90582,-15.94796 3.68655,-21.78673 3.7687,-4.79173 8.29043,-6.41264 13.88644,-9.33499 3.0692,-0.91429 6.04426,-2.09649 9.20767,-2.74293 6.86418,-1.40274 13.38084,-1.57534 20.34687,-0.57181 3.23665,0.46627 11.35765,4.51949 9.48563,2.24246 -2.96734,-3.60932 -8.44025,-5.33904 -13.30858,-6.89241 -3.26238,-1.04094 5.57215,3.5419 8.35819,5.31286 5.48198,5.00855 6.69366,5.24333 9.89224,11.15123 1.56169,2.88455 2.12523,5.16518 2.33793,8.22053 0.0441,0.67253 -0.71847,1.58189 -0.11092,2.01896 3.98331,2.86646 8.72693,4.88076 13.0904,7.32117 -1.42159,-0.52555 -3.00586,-0.81067 -4.26477,-1.57688 -1.30784,-0.79605 -2.27287,-1.9394 -3.26994,-3.00908 -3.94415,-4.23158 -6.98555,-9.08593 -9.19346,-14.11927 z"/>
        <path
            style="fill:url(#linearGradient43);fill-opacity:1;fill-rule:nonzero;stroke:#000;stroke-width:3.98059;stroke-linejoin:bevel"
            id="path5"
            d="m 586.59183,548.78334 c -0.27965,7.53926 -0.25142,15.10723 -0.3599,22.66167 -0.75899,15.02074 -0.62639,30.07912 -0.33419,45.11227 0.87987,16.08772 1.36029,32.18791 1.71297,48.2892 0.32855,9.92187 0.11353,19.90998 1.85668,29.7567 1.09124,6.16384 1.83593,7.91091 3.6896,13.85681 1.98078,5.67067 4.6769,11.17178 8.07294,16.34532 0.45584,0.69486 3.69982,5.38213 5.00825,6.00628 17.17829,8.19482 34.79528,15.71641 52.19293,23.57456 1.52218,-0.74281 3.16637,-1.33077 4.56663,-2.22844 7.30256,-4.6816 12.68511,-13.02963 16.45939,-19.92543 0.82044,-1.83382 3.01189,-8.58383 0.0948,-10.11522 -17.4732,-9.17257 -35.43437,-17.69399 -53.64431,-25.7812 -1.83914,-0.81675 -4.12382,-0.45303 -6.16541,-0.78075 -2.66595,-0.42764 -5.29937,-0.98903 -7.94908,-1.48357 -3.39951,-0.90883 -6.84947,-1.69262 -10.19842,-2.72647 -4.04392,-1.24841 -8.04308,-2.60982 -11.96254,-4.11476 -4.29491,-1.64918 -16.68715,-7.41977 -12.66267,-5.34058 68.72962,35.5081 26.94325,12.94896 19.40704,7.92996 -3.24989,-2.16434 -6.18583,-4.64497 -9.27873,-6.96746 -2.27356,-2.4314 -4.85362,-4.67927 -6.82066,-7.29422 -4.75735,-6.32448 -6.94678,-13.65585 -5.58667,-21.08933 0.8931,-4.88123 2.01613,-5.8691 4.6276,-9.88642 0.73081,-0.55355 3.16531,-3.43277 5.11196,-2.02664 0.71622,0.51763 1.83906,2.59765 1.00158,2.23236 -16.64846,-7.2611 -32.35893,-15.99664 -49.04975,-23.18826 -1.26608,-0.5455 1.64617,1.96736 2.28568,3.03895 0.76458,1.28123 1.2729,2.66041 1.90934,3.9906 1.53475,3.49945 3.99111,9.92564 8.02194,11.99858 18.43712,9.48166 37.08653,26.91238 60.29584,26.50898 2.1717,-0.0369 4.32562,-0.33978 6.48842,-0.5102 13.77045,-2.44205 27.51288,-4.88627 41.49969,-6.25116 5.09077,-0.14238 10.50978,-1.09388 15.54799,0.005 6.21758,18.73779 0.77293,1.58117 -55.17668,-29.23533 -0.13608,-0.0751 0.14922,-0.29904 0.0502,-0.40912 -0.24202,-0.27575 -1.10277,0.48426 -1.76289,1.12821 -11.5724,18.88911 -3.04114,3.28537 55.94711,32.44942 0.66568,0.32919 2.38347,-0.7481 1.82694,-1.19904 -25.23184,-20.4467 -15.64562,-6.53155 -22.22023,-16.65695 0,0 -1.55908,-0.91036 -1.55908,-0.91036 v 0 c -2.06934,-0.64507 -4.30955,-0.98696 -6.20798,-1.93513 -8.27018,-4.13049 -16.2406,-8.67988 -24.1843,-13.24409 -0.39375,-0.22652 -1.10384,-1.26482 -0.69874,-1.05296 18.85584,9.85977 37.87295,19.52801 56.1997,30.07459 0.6114,0.35196 -0.87622,1.00702 -1.31442,1.51049 -0.82961,0.54477 2.3158,-2.02684 1.90018,-2.27416 -54.32697,-32.32399 -42.35119,-46.14612 -55.64624,-30.23193 -3.39153,1.80556 -7.69384,2.09909 -11.37198,3.28706 -12.80437,2.95723 -25.65242,6.40137 -39.03508,6.67372 -2.05137,-0.13072 -4.13096,-0.0778 -6.15417,-0.39217 -1.82866,-0.28422 -6.89648,-2.23612 -5.32846,-1.39269 14.55433,7.82856 29.59829,14.98899 44.43639,22.42828 1.44551,0.72472 -3.00227,-1.3387 -4.25672,-2.28353 -3.341,-2.5164 -3.3588,-3.87087 -4.8618,-7.3009 -0.42761,-1.36299 -0.88695,-2.71921 -1.28303,-4.08904 -0.36241,-1.25329 0.26396,-3.04376 -0.99205,-3.77852 -17.01844,-9.9539 -34.6994,-19.12494 -52.76503,-27.66334 -1.66556,-0.78722 -5.47081,2.87545 -5.94413,3.45199 -0.94114,1.14637 -1.54258,2.46691 -2.31386,3.70033 -2.65328,6.46928 -5.02503,13.07707 -4.42602,20.0548 0.83926,9.7765 6.50823,17.90344 13.84557,25.22564 3.29783,2.56153 6.43567,5.27811 9.89353,7.68466 18.9329,13.17665 51.62802,27.03239 67.35226,34.45686 12.17624,5.74925 25.48209,9.71597 38.62127,13.53181 3.03385,0.73106 6.08666,1.40841 9.10169,2.19313 2.28918,0.59579 8.81296,3.05159 6.80624,1.9472 -14.6824,-8.08086 -30.13064,-15.12868 -44.99691,-22.96639 -0.85391,-0.4504 2.07965,0.24928 2.88191,0.76276 2.16779,1.38724 1.4742,3.24552 1.44379,5.1654 -0.45645,1.25592 -0.78281,2.55102 -1.3693,3.76788 -2.1769,4.51637 -6.99248,10.92673 -12.75139,12.66615 -0.95593,0.28897 -2.02541,0.12279 -3.03808,0.18418 15.00383,7.56134 30.02879,15.09293 45.0115,22.68397 1.33493,0.67634 -2.84883,-1.12048 -4.0667,-1.93925 -1.51561,-1.01897 -2.80278,-2.26793 -4.05151,-3.51856 -5.10112,-5.10913 -8.87391,-11.0437 -12.49983,-16.94042 -3.22826,-6.5375 -3.86987,-7.29851 -6.18408,-14.19081 -3.40758,-10.14873 -4.79682,-20.64973 -6.18131,-31.10035 -2.3127,-17.09666 -5.01383,-34.14356 -8.25107,-51.13501 -1.61703,-8.37025 -3.20071,-16.74629 -4.67896,-25.135 -0.95309,-5.40906 -1.66273,-10.84823 -2.67861,-16.24914 -0.48155,-2.55833 -1.10791,-5.09566 -1.6618,-7.64349 -1.79928,-8.78219 -3.80751,-17.55945 -7.34349,-25.98174 z"/>
        <path
            style="fill:url(#linearGradient44);fill-opacity:1;fill-rule:nonzero;stroke:#000;stroke-width:3.98059;stroke-linejoin:bevel"
            id="path6"
            d="m 717.76534,645.73482 c -0.0648,0.79621 -0.26464,1.59274 -0.19437,2.3886 0.13605,1.5413 1.66642,7.83126 1.94005,8.89406 1.71591,6.66488 3.98969,13.14235 6.37388,19.65441 2.70181,5.49523 5.08231,11.31425 9.51398,16.05063 0.97195,1.03883 1.95867,2.13591 3.28388,2.84376 27.0291,14.43861 19.55496,12.14888 33.99873,16.06995 2.46093,0.48267 4.95822,0.53084 7.46226,0.36993 0.40247,-0.0266 1.51839,0.0921 1.20248,-0.11959 -4.55377,-3.05653 -9.45324,-5.72694 -14.17986,-8.5904 0,0 -1.56267,-0.90608 -1.56267,-0.90608 v 0 c -29.78786,-16.5755 -6.85347,-6.63291 -19.10776,-7.94865 -10.32882,-3.23043 -6.79993,-2.26724 20.33238,10.71102 1.78961,0.85601 -3.47221,-1.88079 -5.04461,-3.00016 -6.77886,-4.82572 -11.41064,-11.07826 -15.5775,-17.60487 -1.67757,-2.61101 -3.44261,-5.18342 -5.03263,-7.83316 -2.1686,-3.61365 -5.62382,-10.201 -7.52219,-14.05083 -1.60506,-3.25488 -2.86973,-6.6255 -4.50815,-9.86847 -0.55734,-1.1032 -1.26827,-2.14646 -1.90244,-3.21964 z"/>
        <path
            style="fill:url(#linearGradient45);fill-opacity:1;fill-rule:nonzero;stroke:#000;stroke-width:3.98059;stroke-linejoin:bevel"
            id="path7"
            d="m 697.5762,590.45081 c -0.56058,0.50329 -1.21607,0.94184 -1.68198,1.50981 -7.68982,9.37485 17.19165,15.00858 30.84314,20.85611 1.00742,0.43146 2.23509,-0.27876 3.35254,-0.41817 4.19106,-1.26174 7.12412,-3.75513 7.3398,-7.64363 0.0315,-0.61241 0.39313,-1.50197 -0.22009,-1.82984 -12.54627,-6.70271 -25.68507,-12.58057 -38.52765,-18.87086 -0.97339,0.52095 -2.04496,0.92975 -2.92011,1.56282 -0.09,0.0647 -5.16247,4.57215 -4.60056,5.11617 4.67768,4.52889 11.0358,7.59129 16.55369,11.38695 0,0 1.64772,0.79159 1.64772,0.79159 v 0 c 6.48896,2.15002 12.70293,5.02682 19.46695,6.45007 0.95495,0.20096 2.26883,-4.59307 4.3523,-2.79509 -11.74141,-6.00511 -23.52924,-11.94611 -35.22441,-18.01535 -0.61133,-0.31733 1.40322,0.37054 1.96029,0.75274 1.13248,0.7771 2.22447,3.05962 1.32549,4.26213 -0.27273,0.36478 -0.86498,0.45935 -1.29752,0.68905 -12.14793,-0.46385 -1.96128,-0.27363 25.92875,14.08638 0.94172,0.48485 -1.9621,-0.88195 -2.80385,-1.48368 -1.81129,-1.29464 -2.9703,-2.89551 -4.02306,-4.6557 -0.44766,-0.7486 -0.77356,-1.54486 -1.1603,-2.31729 z"/>
        <path
            style="fill:url(#linearGradient46);fill-opacity:1;fill-rule:nonzero;stroke:#000;stroke-width:3.98059;stroke-linejoin:bevel"
            id="path9"
            d="m 981.825,686.95133 c -1.46016,-0.41493 -3.08712,-0.18523 -4.55658,-0.55947 -0.6429,-0.16353 -2.40215,-1.01443 -1.80914,-0.74827 8.38329,3.76302 16.84112,7.40822 25.18112,11.23935 0.1012,0.0477 -0.1562,0.31756 -0.2108,0.2313 -0.07,-0.11273 0.083,-0.24504 0.1249,-0.36783 0.6472,-0.0369 0.9726,-0.58711 1.5267,-0.76029 0.2753,-0.0857 1.1198,0.0593 0.8756,-0.0783 -14.46959,-8.16031 -10.56969,-3.17967 -13.9675,-7.72377 0,0 -1.53526,-0.93885 -1.53526,-0.93885 v 0 c -7.40445,-2.36167 -1.50935,-0.40436 -17.06126,-7.06533 -0.49096,-0.16566 -0.0375,0.89333 -0.0114,1.33918 0.0955,1.6101 0.16615,1.38845 0.82848,3.01174 0.0568,0.208 0.8277,3.05298 0.95884,3.11865 12.39288,6.20397 28.1822,20.50973 26.61318,8.81806 z"/></g>
    <g
        inkscape:groupmode="layer"
        id="layer3"
        inkscape:label="Layer 2"><text
            xml:space="preserve"
            id="text1"
            style="shape-inside:url(#rect2);opacity:1;fill:none;fill-opacity:0.66915423;stroke-width:1.275;font-size:60px;stroke:#000000;stroke-opacity:1; wrap-flow: auto"><tspan
            x="89.138672"
            y="100.02942"
            id="tspan1">${publication.short}</tspan></text></g></svg>