<?xml version="1.0" encoding="UTF-8" standalone="no"?>
<svg
   style="display:block;shape-rendering:auto"
   width="10"
   height="10"
   viewBox="0 0 5 5"
   preserveAspectRatio="xMidYMid"
   version="1.1"
   id="svg12"
   sodipodi:docname="check.svg"
   inkscape:version="1.3.2 (091e20e, 2023-11-25, custom)"
   xmlns:inkscape="http://www.inkscape.org/namespaces/inkscape"
   xmlns:sodipodi="http://sodipodi.sourceforge.net/DTD/sodipodi-0.dtd"
   xmlns="http://www.w3.org/2000/svg"
   xmlns:svg="http://www.w3.org/2000/svg">
  <defs
     id="defs12">
    <linearGradient
       id="linearGradient7"
       inkscape:swatch="gradient">
      <stop
         style="stop-color:#d3d3d3;stop-opacity:1;"
         offset="0"
         id="stop8" />
      <stop
         style="stop-color:#d3d3d3;stop-opacity:0;"
         offset="1"
         id="stop9" />
    </linearGradient>
  </defs>
  <sodipodi:namedview
     id="namedview12"
     pagecolor="#ffffff"
     bordercolor="#000000"
     borderopacity="0.25"
     inkscape:showpageshadow="2"
     inkscape:pageopacity="0.0"
     inkscape:pagecheckerboard="0"
     inkscape:deskcolor="#d1d1d1"
     inkscape:zoom="35.64"
     inkscape:cx="9.1329966"
     inkscape:cy="7.1127946"
     inkscape:window-width="1920"
     inkscape:window-height="1129"
     inkscape:window-x="-8"
     inkscape:window-y="-8"
     inkscape:window-maximized="1"
     inkscape:current-layer="svg12" />
  <ellipse
     style="display:block;shape-rendering:auto;fill:#c4c4c4;stroke-width:0.6375;fill-opacity:0.34854773;stroke-dasharray:none;stroke:none"
     id="path2"
     cx="2.5112233"
     cy="2.5112233"
     rx="2.483165"
     ry="2.4971941" />
  <path
     style="fill:#00ff00;stroke-width:0.239285"
     d="m 1.677654,1.6779551 c 0.1046896,-0.00355 0.2082754,-0.021123 0.3119109,-0.034879 0.019144,-0.00254 0.061452,-0.00848 0.076994,-0.0037 0.0022,6.79e-4 -8.657e-4,0.0051 9.901e-4,0.00639 0.00395,0.00274 0.016777,-0.00549 0.020728,-0.00275 0.00372,0.00258 0.00132,0.00852 0.00198,0.012785 0.00298,0.019226 2.666e-4,0.035857 -0.00589,0.052974 -0.00467,0.012984 0.00891,0.045202 0.00892,0.057533 1.44e-5,0.02382 -0.00404,0.047753 -0.00292,0.072152 0.00225,0.048641 0.015334,0.09888 0.0228,0.1470279 0.016522,0.1065421 0.033043,0.213084 0.049565,0.319626 0.011403,0.073533 0.016761,0.1514539 0.034695,0.2237382 0.00781,0.031483 0.018087,0.063184 0.028688,0.094053 0.00353,0.010257 0.00189,0.02158 0.00496,0.031963 0.00611,0.020693 0.01847,0.041592 0.023731,0.062091 0.00612,0.023844 0.00382,0.070832 0.014869,0.095888 0.00317,0.00719 0.00971,-0.013322 0.010844,-0.021012 0.00573,-0.038803 0.026751,-0.075559 0.046323,-0.1105346 0.00713,-0.012733 0.028874,-0.043705 0.033526,-0.056643 0.00147,-0.00409 -0.00308,-0.0086 -0.00198,-0.012786 0.00736,-0.028078 0.011246,-0.045966 0.016733,-0.073986 0.00426,-0.021765 0.026184,-0.036224 0.033526,-0.056643 0.00197,-0.00548 -0.00495,-0.013697 -0.00298,-0.019178 0.00415,-0.011555 0.017351,-0.018558 0.023672,-0.029239 0.005,-0.00844 0.00537,-0.018717 0.00985,-0.027405 0.022,-0.042625 0.079051,-0.076137 0.1025892,-0.1114793 0.00386,-0.0058 0.00108,-0.013819 0.00394,-0.020095 0.00983,-0.021646 0.029852,-0.041517 0.039444,-0.063952 0.00271,-0.00633 6.169e-4,-0.01402 0.00394,-0.020095 0.01898,-0.034722 0.050151,-0.065956 0.069034,-0.1005011 0.018225,-0.033341 0.031047,-0.070083 0.047315,-0.104142 0.012989,-0.027194 0.038876,-0.046227 0.052271,-0.07218 10e-4,-0.00194 -0.00239,-0.00467 -9.901e-4,-0.00639 0.0014,-0.00172 0.00551,8.055e-4 0.00691,-9.161e-4 0.00279,-0.00344 -0.00477,-0.00934 -0.00198,-0.012785 0.00139,-0.00172 0.00551,8.055e-4 0.00691,-9.161e-4 0.0014,-0.00172 -0.00173,-0.00435 -9.901e-4,-0.00639 0.00104,-0.00289 0.00395,-0.00487 0.00592,-0.00731 0.00262,-0.013396 0.00387,-0.027089 0.00787,-0.04019 0.00457,-0.014937 0.013374,-0.028542 0.02169,-0.042023 0.010631,-0.017237 0.025273,-0.032341 0.034517,-0.05025 0.00224,-0.00435 0.00181,-0.00985 0.00493,-0.013702 0.00312,-0.00385 0.00971,-0.00437 0.012828,-0.00823 0.00503,-0.00621 0.00582,-0.0148 0.010844,-0.021012 C 2.875501,1.691349 2.906186,1.668683 2.915508,1.65717 2.924178,1.646457 2.923308,1.627854 2.930288,1.616064 2.9485,1.585293 2.968263,1.554592 2.986494,1.52379 c 0.00207,-0.0035 0.00126,-0.03202 0.00195,-0.03288 0.00611,-0.00755 0.052748,-0.007 0.062184,-0.00825 0.037648,-0.005 0.1763388,-0.026135 0.1796424,-0.023846 0.00187,0.00129 -8.707e-4,0.0051 9.901e-4,0.00639 0.00239,0.00165 0.041215,-0.00547 0.041456,-0.0055 0.032279,-0.00428 0.1513841,-0.032019 0.1737245,-0.016536 0.00725,0.00503 0.00659,0.042481 0.00793,0.05114 0.00636,0.041022 -0.00868,0.1176358 -0.040375,0.1488897 -0.021787,0.021486 -0.045838,0.039899 -0.068069,0.061227 -0.015989,0.01534 -0.026559,0.034891 -0.041426,0.051168 -0.013015,0.014248 -0.067688,0.059265 -0.072008,0.081323 -0.00229,0.011704 3.383e-4,0.021176 -0.00195,0.03288 -0.00209,0.010673 -0.014399,0.022375 -0.015771,0.034714 -0.00197,0.017694 -0.00545,0.035076 -0.00589,0.052974 0.027004,0.021114 -0.00758,0.022265 -0.00886,0.033797 -9.503e-4,0.00856 0.00563,0.017097 0.00397,0.02557 -0.00563,0.028765 -0.00298,0.081482 -0.011777,0.105949 -0.00311,0.00867 -0.013216,0.013819 -0.017754,0.021929 -0.013267,0.023708 -0.022684,0.069937 -0.034487,0.095915 -0.00851,0.018721 -0.016524,0.037692 -0.026616,0.055726 -0.00756,0.013517 -0.023215,0.022516 -0.02959,0.036548 -0.00285,0.00628 -0.00137,0.013716 -0.00394,0.020095 -0.081916,0.2032932 0.010743,-0.035079 -0.043379,0.084047 -0.013715,0.030188 -0.023609,0.065662 -0.034487,0.095915 -0.00666,0.018514 0.00204,0.040078 -0.0049,0.059367 -0.00367,0.010213 -0.012615,0.018266 -0.016763,0.028321 -0.00447,0.01083 -0.00401,0.02311 -0.00886,0.033797 -0.023597,0.051938 -0.069025,0.092874 -0.1055332,0.1379665 -0.034472,0.042578 -0.064922,0.087806 -0.099615,0.1306568 -0.020954,0.025881 -0.041535,0.056219 -0.065098,0.080406 -0.00562,0.00577 -0.013716,0.00932 -0.018746,0.015536 -0.038657,0.047747 0.03823,-0.025906 -0.016763,0.028321 -0.028814,0.028413 -0.050376,0.058473 -0.077926,0.088633 -0.00541,0.00593 -0.014246,0.00899 -0.018746,0.015536 -0.00728,0.010594 -0.00911,0.023779 -0.015772,0.034714 -0.03623,0.059479 -0.041212,0.054099 -0.081861,0.1087278 -0.088478,0.1189085 0.026392,-0.030169 -0.050288,0.084965 -0.0037,0.00556 -0.015588,0.00402 -0.019737,0.00914 -0.00197,0.00244 -0.00196,0.017658 -0.00394,0.020095 -9.255e-4,0.00114 -0.026407,0.00452 -0.027637,0.00367 -0.00186,-0.00129 8.707e-4,-0.0051 -9.901e-4,-0.00639 -0.00292,-0.00202 -0.048742,-0.017837 -0.052331,-0.01915 -0.033979,-0.012435 -0.031146,-0.0073 -0.058249,-0.01184 -0.00648,-0.00109 -0.00956,-0.00903 -0.015801,-0.010951 -0.00698,-0.00215 -0.014937,-10e-4 -0.02172,-0.00364 -0.020783,-0.00808 -0.038808,-0.024118 -0.061226,-0.031018 -0.026646,-0.0082 -0.060218,-0.011193 -0.087868,-0.020957 -0.04057,-0.014326 -0.07828,-0.038769 -0.1204622,-0.049251 -0.00449,-0.00111 -0.0094,0.00319 -0.013819,0.00183 -0.00316,-9.759e-4 -0.015104,-0.039408 -0.01484,-0.050223 9.553e-4,-0.039056 0.016155,-0.082486 0.023613,-0.1205682 0.00612,-0.031235 -3.856e-4,-0.081323 -0.00303,-0.1105072 -0.012187,-0.1343067 -0.041756,-0.2692562 -0.062453,-0.4027231 -0.00689,-0.044435 -0.022911,-0.095597 -0.021808,-0.1406355 0.00127,-0.051958 0.00565,-0.1047017 0.00385,-0.157089 -0.00187,-0.054234 -0.01748,-0.1127221 -0.025774,-0.1662055 -0.00581,-0.037466 -0.0062,-0.084658 -0.018835,-0.1214578 -0.013033,-0.037951 -0.028606,-0.073488 -0.038571,-0.1123139 -0.00804,-0.031314 -0.020371,-0.077017 -0.016852,-0.1086728 3.371e-4,-0.00303 0.00533,-0.00431 0.00592,-0.00731 0.00322,-0.016419 -0.00757,-0.045596 -0.015831,-0.056616 -0.00265,-0.00354 0.00174,-0.010204 -0.00198,-0.012785 -0.00395,-0.00274 -0.01086,-0.00182 -0.01481,-0.00456 -0.00372,-0.00258 0.00174,-0.010204 -0.00198,-0.012785 -0.00395,-0.00274 -0.01086,-0.00182 -0.01481,-0.00456 -0.00186,-0.00129 0.00131,-0.0067 -9.911e-4,-0.00639 -0.014009,0.00186 -0.026976,0.00793 -0.040465,0.011895 z"
     id="path1" />
</svg>
